# xmcd
#
# Track frame offsets: 
#        300
#        19163
#        35474
#        50787
#        72741
#        82500
#        99649
#        116537
#        132034
#        149948
#        167190
#        187256
#
# Disc length: 2544 seconds
#
# Revision: 0
# Processed by: cddbd v1.5.2PL0 Copyright (c) Steve Scherf et al.
# Submitted via: ExactAudioCopy v0.99pb5
#
DISCID=b509ec0c
DTITLE=Mighty Mo Rodgers and Baba Sissoko  - Griot Blues 
DYEAR=2017
DGENRE=Blues
TTITLE0=Shake 'Em Up Charlie
TTITLE1=Mali To Mississippi
TTITLE2=Nalu - Mother
TTITLE3=Donke - Dance
TTITLE4=Demisenu - Children
TTITLE5=The Blues Went To Africa
TTITLE6=Djei - Griot - Storyteller
TTITLE7=Drunk As A Skunk
TTITLE8=What Is The Color Of Love?
TTITLE9=Mo Ba
TTITLE10=Griot Blues
TTITLE11=Kalimba
EXTD=
EXTT0=
EXTT1=
EXTT2=
EXTT3=
EXTT4=
EXTT5=
EXTT6=
EXTT7=
EXTT8=
EXTT9=
EXTT10=
EXTT11=
PLAYORDER=
